<svg width="40" height="40" viewBox="0 0 40 40" fill="none" xmlns="http://www.w3.org/2000/svg">
<rect width="40" height="40" rx="20" fill="#FF3E79"/>
<path d="M26.2061 12.2569C26.5967 11.8664 27.2306 11.8664 27.6212 12.2569L27.7432 12.379C28.1336 12.7694 28.1334 13.4025 27.7432 13.793L21.5362 19.9991L27.7432 26.2061C28.1338 26.5967 28.1338 27.2306 27.7432 27.6212L27.6212 27.7432C27.2306 28.1338 26.5967 28.1338 26.2061 27.7432L19.9991 21.5362L13.793 27.7432C13.4025 28.1334 12.7694 28.1336 12.379 27.7432L12.2569 27.6212C11.8664 27.2306 11.8664 26.5967 12.2569 26.2061L18.463 19.9991L12.2569 13.793C11.8667 13.4025 11.8665 12.7694 12.2569 12.379L12.379 12.2569C12.7694 11.8665 13.4025 11.8667 13.793 12.2569L19.9991 18.463L26.2061 12.2569Z" fill="white"/>
</svg>
