<svg width="98" height="52" viewBox="0 0 98 52" fill="none" xmlns="http://www.w3.org/2000/svg">
<path fill-rule="evenodd" clip-rule="evenodd" d="M36.0945 0.25C35.5422 0.25 35.0945 0.697715 35.0945 1.25V5.52495C35.0945 6.07724 35.5422 6.52495 36.0945 6.52495H72.4214C82.5484 6.52495 90.5019 14.3216 90.5019 24.4144C90.5019 24.7 90.7334 24.9315 91.0189 24.9315H96.2811C96.5667 24.9315 96.7982 24.7 96.7982 24.4144C96.7982 10.9252 85.9561 0.25 72.4214 0.25H36.0945Z" fill="#6B7B84" stroke="#80949F" stroke-width="0.5"/>
<path fill-rule="evenodd" clip-rule="evenodd" d="M6.63075 25.3697C6.63075 25.1276 6.43452 24.9314 6.19246 24.9314H0.68829C0.446229 24.9314 0.25 25.1276 0.25 25.3697C0.25 39.0191 10.4732 50.2885 23.6927 51.0261L66.0343 51.0638C66.5869 51.0643 67.0352 50.6165 67.0352 50.0638V45.4842C67.0352 44.9319 66.5875 44.4842 66.0352 44.4842H25.1505C14.9142 44.4559 6.63075 35.9405 6.63075 25.3697Z" fill="#6B7B84" stroke="#80949F" stroke-width="0.5"/>
<path fill-rule="evenodd" clip-rule="evenodd" d="M27.6654 39.4499C30.4043 39.4499 32.6856 38.9178 34.9388 37.823L35.0944 37.6774V29.843L34.2512 30.9224C32.6288 32.6953 30.4499 33.6712 27.9847 33.6712C23.3931 33.6712 18.7815 30.7033 18.7815 25.0313C18.7815 20.7449 21.962 16.1895 27.8233 16.1895C28.9928 16.1895 31.8369 16.466 34.2471 19.0255L35.0944 20.0692V12.2702L34.9457 12.1228C32.6498 10.9722 30.3082 10.4128 27.6376 10.4128C23.0706 10.4128 19.506 11.6152 16.6678 14.0864C14.8674 15.6352 11.8647 19.106 11.8647 24.9497C11.8647 29.2705 13.4033 32.645 16.6908 35.5718C19.7491 38.2537 23.1402 39.4499 27.6654 39.4499" fill="#6B7B84"/>
<path d="M27.6654 39.4499C30.4043 39.4499 32.6856 38.9178 34.9388 37.823L35.0944 37.6774V29.843L34.2512 30.9224C32.6288 32.6953 30.4499 33.6712 27.9847 33.6712C23.3931 33.6712 18.7815 30.7033 18.7815 25.0313C18.7815 20.7449 21.962 16.1895 27.8233 16.1895C28.9928 16.1895 31.8369 16.466 34.2471 19.0255L35.0944 20.0692V12.2702L34.9457 12.1228C32.6498 10.9722 30.3082 10.4128 27.6376 10.4128C23.0706 10.4128 19.506 11.6152 16.6678 14.0864C14.8674 15.6352 11.8647 19.106 11.8647 24.9497C11.8647 29.2705 13.4033 32.645 16.6908 35.5718C19.7491 38.2537 23.1402 39.4499 27.6654 39.4499" stroke="#80949F" stroke-width="0.5"/>
<path fill-rule="evenodd" clip-rule="evenodd" d="M47.4351 16.9463H48.7994C50.0508 16.9463 51.4772 17.0146 52.5568 17.7504C53.0839 18.127 53.9684 18.9987 53.9684 20.582C53.9684 21.7521 53.4513 22.8012 52.5973 23.4558C51.5023 24.2507 50.2007 24.2051 49.1549 24.2051H47.4351V16.9463ZM50.5009 29.4753C53.7323 29.4753 56.2617 28.5433 58.0182 26.7873C60.1789 24.631 60.5019 21.6648 60.5019 20.101C60.5019 18.4277 60.1052 15.1641 57.4451 12.801C55.2647 10.8903 52.9381 10.4128 49.6563 10.4128H40.9019V39.4499H47.5604V29.4753H50.5009V29.4753Z" fill="#6B7B84"/>
<path d="M47.4351 16.9463V16.6963H47.1851V16.9463H47.4351ZM52.5568 17.7504L52.7021 17.5469L52.6976 17.5439L52.5568 17.7504ZM52.5973 23.4558L52.7442 23.6582L52.7494 23.6542L52.5973 23.4558ZM47.4351 24.2051H47.1851V24.4551H47.4351V24.2051ZM58.0182 26.7873L57.8416 26.6103L57.8415 26.6105L58.0182 26.7873ZM57.4451 12.801L57.6112 12.6141L57.6099 12.6129L57.4451 12.801ZM40.9019 10.4128V10.1628H40.6519V10.4128H40.9019ZM40.9019 39.4499H40.6519V39.6999H40.9019V39.4499ZM47.5604 39.4499V39.6999H47.8104V39.4499H47.5604ZM47.5604 29.4753V29.2253H47.3104V29.4753H47.5604ZM47.4351 16.9463V17.1963H48.7994V16.9463V16.6963H47.4351V16.9463ZM48.7994 16.9463V17.1963C50.0565 17.1963 51.4078 17.2698 52.416 17.957L52.5568 17.7504L52.6976 17.5439C51.5466 16.7593 50.0451 16.6963 48.7994 16.6963V16.9463ZM52.5568 17.7504L52.4115 17.9539C52.8991 18.3022 53.7184 19.107 53.7184 20.582H53.9684H54.2184C54.2184 18.8904 53.2687 17.9518 52.7021 17.547L52.5568 17.7504ZM53.9684 20.582H53.7184C53.7184 21.678 53.2347 22.6523 52.4452 23.2574L52.5973 23.4558L52.7494 23.6542C53.668 22.9501 54.2184 21.8261 54.2184 20.582H53.9684ZM52.5973 23.4558L52.4504 23.2535C51.4331 23.992 50.2211 23.9551 49.1549 23.9551V24.2051V24.4551C50.1803 24.4551 51.5715 24.5093 52.7441 23.6581L52.5973 23.4558ZM49.1549 24.2051V23.9551H47.4351V24.2051V24.4551H49.1549V24.2051ZM47.4351 24.2051H47.6851V16.9463H47.4351H47.1851V24.2051H47.4351ZM50.5009 29.4753V29.7253C53.7808 29.7253 56.3803 28.7782 58.1949 26.9641L58.0182 26.7873L57.8415 26.6105C56.1431 28.3083 53.6838 29.2253 50.5009 29.2253V29.4753ZM58.0182 26.7873L58.1948 26.9643C60.4269 24.7368 60.7519 21.6862 60.7519 20.101H60.5019H60.2519C60.2519 21.6434 59.931 24.5253 57.8416 26.6103L58.0182 26.7873ZM60.5019 20.101H60.7519C60.7519 18.3996 60.3502 15.0473 57.6112 12.6141L57.4451 12.801L57.2791 12.9879C59.8602 15.2808 60.2519 18.4558 60.2519 20.101H60.5019ZM57.4451 12.801L57.6099 12.6129C55.3639 10.6449 52.9657 10.1628 49.6563 10.1628V10.4128V10.6628C52.9106 10.6628 55.1654 11.1357 57.2804 12.989L57.4451 12.801ZM49.6563 10.4128V10.1628H40.9019V10.4128V10.6628H49.6563V10.4128ZM40.9019 10.4128H40.6519V39.4499H40.9019H41.1519V10.4128H40.9019ZM40.9019 39.4499V39.6999H47.5604V39.4499V39.1999H40.9019V39.4499ZM47.5604 39.4499H47.8104V29.4753H47.5604H47.3104V39.4499H47.5604ZM47.5604 29.4753V29.7253H50.5009V29.4753V29.2253H47.5604V29.4753Z" fill="#80949F"/>
<path fill-rule="evenodd" clip-rule="evenodd" d="M80.4769 24.1261C79.0293 22.8435 77.0085 22.1 74.715 21.3288C73.0808 20.7601 72.1804 20.4469 71.5802 19.8996C71.1064 19.4974 70.8951 19.0608 70.8951 18.4837C70.8951 17.2196 71.754 15.8688 74.1653 15.8688C75.804 15.8688 77.1761 16.5695 78.2436 17.9505L78.6674 18.4989L82.1837 14.023L81.8631 13.702C79.7126 11.5499 76.8788 10.4128 73.6679 10.4128C67.1896 10.4128 64.2897 14.6274 64.2897 18.8043C64.2897 21.0457 65.089 22.8535 66.6606 24.1749C68.0676 25.3809 69.7835 26.0566 71.4293 26.6081L71.6154 26.6698C73.0769 27.1529 74.5885 27.6529 75.4913 28.4609C76.1194 29.038 76.3993 29.6651 76.3993 30.4942C76.3993 32.3942 74.903 33.6712 72.676 33.6712C70.9156 33.6712 68.5975 32.8083 67.3711 30.3871L67.0503 29.7528L62.6797 33.7985L62.9374 34.1631C64.3319 36.1375 67.4784 39.4499 72.8833 39.4499C78.843 39.4499 83.0056 35.6183 83.0056 30.1326C83.0056 26.9949 81.629 25.1327 80.4769 24.1261" fill="#6B7B84"/>
<path d="M80.4769 24.1261C79.0293 22.8435 77.0085 22.1 74.715 21.3288C73.0808 20.7601 72.1804 20.4469 71.5802 19.8996C71.1064 19.4974 70.8951 19.0608 70.8951 18.4837C70.8951 17.2196 71.754 15.8688 74.1653 15.8688C75.804 15.8688 77.1761 16.5695 78.2436 17.9505L78.6674 18.4989L82.1837 14.023L81.8631 13.702C79.7126 11.5499 76.8788 10.4128 73.6679 10.4128C67.1896 10.4128 64.2897 14.6274 64.2897 18.8043C64.2897 21.0457 65.089 22.8535 66.6606 24.1749C68.0676 25.3809 69.7835 26.0566 71.4293 26.6081L71.6154 26.6698C73.0769 27.1529 74.5885 27.6529 75.4913 28.4609C76.1194 29.038 76.3993 29.6651 76.3993 30.4942C76.3993 32.3942 74.903 33.6712 72.676 33.6712C70.9156 33.6712 68.5975 32.8083 67.3711 30.3871L67.0503 29.7528L62.6797 33.7985L62.9374 34.1631C64.3319 36.1375 67.4784 39.4499 72.8833 39.4499C78.843 39.4499 83.0056 35.6183 83.0056 30.1326C83.0056 26.9949 81.629 25.1327 80.4769 24.1261" stroke="#80949F" stroke-width="0.5"/>
</svg>
