<svg width="8" height="11" viewBox="0 0 8 11" fill="none" xmlns="http://www.w3.org/2000/svg">
<path d="M6.20711 6.20711C6.48325 5.93096 6.93096 5.93096 7.20711 6.20711C7.48325 6.48325 7.48325 6.93096 7.20711 7.20711L4.41414 10.0001C4.02363 10.3905 3.39058 10.3905 3.00008 10.0001L0.207107 7.20711C-0.0690356 6.93096 -0.0690356 6.48325 0.207107 6.20711C0.483249 5.93096 0.930964 5.93096 1.20711 6.20711L3.70711 8.70711L6.20711 6.20711ZM6.20711 0.207107C6.48325 -0.0690354 6.93096 -0.0690356 7.20711 0.207107C7.48325 0.483249 7.48325 0.930964 7.20711 1.20711L4.41414 4.00008C4.02363 4.3905 3.39058 4.3905 3.00008 4.00008L0.207107 1.20711C-0.0690356 0.930964 -0.0690356 0.483249 0.207107 0.207107C0.483249 -0.0690356 0.930964 -0.0690356 1.20711 0.207107L3.70711 2.70711L6.20711 0.207107Z" fill="#41F6D7"/>
</svg>
